<?xml version="1.0" encoding="utf-8"?>
<!-- Generator: Adobe Illustrator 18.0.0, SVG Export Plug-In . SVG Version: 6.00 Build 0)  -->
<!DOCTYPE svg PUBLIC "-//W3C//DTD SVG 1.1//EN" "http://www.w3.org/Graphics/SVG/1.1/DTD/svg11.dtd">
<svg version="1.1" id="Layer_1" xmlns="http://www.w3.org/2000/svg" xmlns:xlink="http://www.w3.org/1999/xlink" x="0px" y="0px"
	 viewBox="465 0 693.4 693.4" enable-background="new 31 32 722.6 722.1" xml:space="preserve">
   <g id="design-freepik">
     <path d="M465.39933,346.90487v346.96262h346.78937h346.78937v-346.96262v-346.90487h-346.78937h-346.78937z" fill="#000000"/>
     <path d="M511.59942,23.38879v22.81129h-22.81129h-22.81129v-22.81129v-22.81129h22.81129h22.81129z" fill="#ff0000"/>
     <path d="M557.7995,23.38879v22.81129h-22.81129h-22.81129v-22.81129v-22.81129h22.81129h22.81129z" fill="#ffffff"/>
     <path d="M603.99958,23.38879v22.81129h-22.81129h-22.81129v-22.81129v-22.81129h22.81129h22.81129z" fill="#ffffff"/>
     <path d="M650.19967,23.38879v22.81129h-22.81129h-22.81129v-22.81129v-22.81129h22.81129h22.81129z" fill="#87cefa"/>
     <path d="M696.39975,23.38879v22.81129h-22.81129h-22.81129v-22.81129v-22.81129h22.81129h22.81129z" fill="#ffffff"/>
     <path d="M742.59983,23.38879v22.81129h-22.81129h-22.81129v-22.81129v-22.81129h22.81129h22.81129z" fill="#ffffff"/>
     <path d="M788.79992,23.38879v22.81129h-22.81129h-22.81129v-22.81129v-22.81129h22.81129h22.81129z" fill="#ffffff"/>
     <path d="M835,23.38879v22.81129h-22.81129h-22.81129v-22.81129v-22.81129h22.81129h22.81129z" fill="#ff0000"/>
     <path d="M881.20008,23.38879v22.81129h-22.81129h-22.81129v-22.81129v-22.81129h22.81129h22.81129z" fill="#ffffff"/>
     <path d="M927.40017,23.38879v22.81129h-22.81129h-22.81129v-22.81129v-22.81129h22.81129h22.81129z" fill="#ffffff"/>
     <path d="M973.60025,23.38879v22.81129h-22.81129h-22.81129v-22.81129v-22.81129h22.81129h22.81129z" fill="#ffffff"/>
     <path d="M1019.80033,23.38879v22.81129h-22.81129h-22.81129v-22.81129v-22.81129h22.81129h22.81129z" fill="#87cefa"/>
     <path d="M1066.00042,23.38879v22.81129h-22.81129h-22.81129v-22.81129v-22.81129h22.81129h22.81129z" fill="#ffffff"/>
     <path d="M1112.2005,23.38879v22.81129h-22.81129h-22.81129v-22.81129v-22.81129h22.81129h22.81129z" fill="#ffffff"/>
     <path d="M1158.40058,23.38879v22.81129h-22.81129h-22.81129v-22.81129v-22.81129h22.81129h22.81129z" fill="#ff0000"/>
     <path d="M511.59942,69.58888v22.81129h-22.81129h-22.81129v-22.81129v-22.81129h22.81129h22.81129z" fill="#ffffff"/>
     <path d="M557.7995,69.58888v22.81129h-22.81129h-22.81129v-22.81129v-22.81129h22.81129h22.81129z" fill="#f484b4"/>
     <path d="M603.99958,69.58888v22.81129h-22.81129h-22.81129v-22.81129v-22.81129h22.81129h22.81129z" fill="#ffffff"/>
     <path d="M650.19967,69.58888v22.81129h-22.81129h-22.81129v-22.81129v-22.81129h22.81129h22.81129z" fill="#ffffff"/>
     <path d="M696.39975,69.58888v22.81129h-22.81129h-22.81129v-22.81129v-22.81129h22.81129h22.81129z" fill="#ffffff"/>
     <path d="M742.59983,69.58888v22.81129h-22.81129h-22.81129v-22.81129v-22.81129h22.81129h22.81129z" fill="#32566c"/>
     <path d="M788.79992,69.58888v22.81129h-22.81129h-22.81129v-22.81129v-22.81129h22.81129h22.81129z" fill="#ffffff"/>
     <path d="M835,69.58888v22.81129h-22.81129h-22.81129v-22.81129v-22.81129h22.81129h22.81129z" fill="#ffffff"/>
     <path d="M881.20008,69.58888v22.81129h-22.81129h-22.81129v-22.81129v-22.81129h22.81129h22.81129z" fill="#ffffff"/>
     <path d="M927.40017,69.58888v22.81129h-22.81129h-22.81129v-22.81129v-22.81129h22.81129h22.81129z" fill="#32566c"/>
     <path d="M973.60025,69.58888v22.81129h-22.81129h-22.81129v-22.81129v-22.81129h22.81129h22.81129z" fill="#ffffff"/>
     <path d="M1019.80033,69.58888v22.81129h-22.81129h-22.81129v-22.81129v-22.81129h22.81129h22.81129z" fill="#ffffff"/>
     <path d="M1066.00042,69.58888v22.81129h-22.81129h-22.81129v-22.81129v-22.81129h22.81129h22.81129z" fill="#ffffff"/>
     <path d="M1112.2005,69.58888v22.81129h-22.81129h-22.81129v-22.81129v-22.81129h22.81129h22.81129z" fill="#f484b4"/>
     <path d="M1158.40058,69.58888v22.81129h-22.81129h-22.81129v-22.81129v-22.81129h22.81129h22.81129z" fill="#ffffff"/>
     <path d="M511.59942,115.78896v22.81129h-22.81129h-22.81129v-22.81129v-22.81129h22.81129h22.81129z" fill="#ffffff"/>
     <path d="M557.7995,115.78896v22.81129h-22.81129h-22.81129v-22.81129v-22.81129h22.81129h22.81129z" fill="#ffffff"/>
     <path d="M603.99958,115.78896v22.81129h-22.81129h-22.81129v-22.81129v-22.81129h22.81129h22.81129z" fill="#f484b4"/>
     <path d="M650.19967,115.78896v22.81129h-22.81129h-22.81129v-22.81129v-22.81129h22.81129h22.81129z" fill="#ffffff"/>
     <path d="M696.39975,115.78896v22.81129h-22.81129h-22.81129v-22.81129v-22.81129h22.81129h22.81129z" fill="#ffffff"/>
     <path d="M742.59983,115.78896v22.81129h-22.81129h-22.81129v-22.81129v-22.81129h22.81129h22.81129z" fill="#ffffff"/>
     <path d="M788.79992,115.78896v22.81129h-22.81129h-22.81129v-22.81129v-22.81129h22.81129h22.81129z" fill="#87cefa"/>
     <path d="M835,115.78896v22.81129h-22.81129h-22.81129v-22.81129v-22.81129h22.81129h22.81129z" fill="#ffffff"/>
     <path d="M881.20008,115.78896v22.81129h-22.81129h-22.81129v-22.81129v-22.81129h22.81129h22.81129z" fill="#87cefa"/>
     <path d="M927.40017,115.78896v22.81129h-22.81129h-22.81129v-22.81129v-22.81129h22.81129h22.81129z" fill="#ffffff"/>
     <path d="M973.60025,115.78896v22.81129h-22.81129h-22.81129v-22.81129v-22.81129h22.81129h22.81129z" fill="#ffffff"/>
     <path d="M1019.80033,115.78896v22.81129h-22.81129h-22.81129v-22.81129v-22.81129h22.81129h22.81129z" fill="#ffffff"/>
     <path d="M1066.00042,115.78896v22.81129h-22.81129h-22.81129v-22.81129v-22.81129h22.81129h22.81129z" fill="#f484b4"/>
     <path d="M1112.2005,115.78896v22.81129h-22.81129h-22.81129v-22.81129v-22.81129h22.81129h22.81129z" fill="#ffffff"/>
     <path d="M1158.40058,115.78896v22.81129h-22.81129h-22.81129v-22.81129v-22.81129h22.81129h22.81129z" fill="#ffffff"/>
     <path d="M511.59942,161.98904v22.81129h-22.81129h-22.81129v-22.81129v-22.81129h22.81129h22.81129z" fill="#87cefa"/>
     <path d="M557.7995,161.98904v22.81129h-22.81129h-22.81129v-22.81129v-22.81129h22.81129h22.81129z" fill="#ffffff"/>
     <path d="M603.99958,161.98904v22.81129h-22.81129h-22.81129v-22.81129v-22.81129h22.81129h22.81129z" fill="#ffffff"/>
     <path d="M650.19967,161.98904v22.81129h-22.81129h-22.81129v-22.81129v-22.81129h22.81129h22.81129z" fill="#f484b4"/>
     <path d="M696.39975,161.98904v22.81129h-22.81129h-22.81129v-22.81129v-22.81129h22.81129h22.81129z" fill="#ffffff"/>
     <path d="M742.59983,161.98904v22.81129h-22.81129h-22.81129v-22.81129v-22.81129h22.81129h22.81129z" fill="#ffffff"/>
     <path d="M788.79992,161.98904v22.81129h-22.81129h-22.81129v-22.81129v-22.81129h22.81129h22.81129z" fill="#ffffff"/>
     <path d="M835,161.98904v22.81129h-22.81129h-22.81129v-22.81129v-22.81129h22.81129h22.81129z" fill="#87cefa"/>
     <path d="M881.20008,161.98904v22.81129h-22.81129h-22.81129v-22.81129v-22.81129h22.81129h22.81129z" fill="#ffffff"/>
     <path d="M927.40017,161.98904v22.81129h-22.81129h-22.81129v-22.81129v-22.81129h22.81129h22.81129z" fill="#ffffff"/>
     <path d="M973.60025,161.98904v22.81129h-22.81129h-22.81129v-22.81129v-22.81129h22.81129h22.81129z" fill="#ffffff"/>
     <path d="M1019.80033,161.98904v22.81129h-22.81129h-22.81129v-22.81129v-22.81129h22.81129h22.81129z" fill="#f484b4"/>
     <path d="M1066.00042,161.98904v22.81129h-22.81129h-22.81129v-22.81129v-22.81129h22.81129h22.81129z" fill="#ffffff"/>
     <path d="M1112.2005,161.98904v22.81129h-22.81129h-22.81129v-22.81129v-22.81129h22.81129h22.81129z" fill="#ffffff"/>
     <path d="M1158.40058,161.98904v22.81129h-22.81129h-22.81129v-22.81129v-22.81129h22.81129h22.81129z" fill="#87cefa"/>
     <path d="M511.59942,208.18912v22.81129h-22.81129h-22.81129v-22.81129v-22.81129h22.81129h22.81129z" fill="#ffffff"/>
     <path d="M557.7995,208.18912v22.81129h-22.81129h-22.81129v-22.81129v-22.81129h22.81129h22.81129z" fill="#ffffff"/>
     <path d="M603.99958,208.18912v22.81129h-22.81129h-22.81129v-22.81129v-22.81129h22.81129h22.81129z" fill="#ffffff"/>
     <path d="M650.19967,208.18912v22.81129h-22.81129h-22.81129v-22.81129v-22.81129h22.81129h22.81129z" fill="#ffffff"/>
     <path d="M696.39975,208.18912v22.81129h-22.81129h-22.81129v-22.81129v-22.81129h22.81129h22.81129z" fill="#f484b4"/>
     <path d="M742.59983,208.18912v22.81129h-22.81129h-22.81129v-22.81129v-22.81129h22.81129h22.81129z" fill="#ffffff"/>
     <path d="M788.79992,208.18912v22.81129h-22.81129h-22.81129v-22.81129v-22.81129h22.81129h22.81129z" fill="#ffffff"/>
     <path d="M835,208.18912v22.81129h-22.81129h-22.81129v-22.81129v-22.81129h22.81129h22.81129z" fill="#ffffff"/>
     <path d="M881.20008,208.18912v22.81129h-22.81129h-22.81129v-22.81129v-22.81129h22.81129h22.81129z" fill="#ffffff"/>
     <path d="M927.40017,208.18912v22.81129h-22.81129h-22.81129v-22.81129v-22.81129h22.81129h22.81129z" fill="#ffffff"/>
     <path d="M973.60025,208.18912v22.81129h-22.81129h-22.81129v-22.81129v-22.81129h22.81129h22.81129z" fill="#f484b4"/>
     <path d="M1019.80033,208.18912v22.81129h-22.81129h-22.81129v-22.81129v-22.81129h22.81129h22.81129z" fill="#ffffff"/>
     <path d="M1066.00042,208.18912v22.81129h-22.81129h-22.81129v-22.81129v-22.81129h22.81129h22.81129z" fill="#ffffff"/>
     <path d="M1112.2005,208.18912v22.81129h-22.81129h-22.81129v-22.81129v-22.81129h22.81129h22.81129z" fill="#ffffff"/>
     <path d="M1158.40058,208.18912v22.81129h-22.81129h-22.81129v-22.81129v-22.81129h22.81129h22.81129z" fill="#ffffff"/>
     <path d="M511.59942,254.38921v22.81129h-22.81129h-22.81129v-22.81129v-22.81129h22.81129h22.81129z" fill="#ffffff"/>
     <path d="M557.7995,254.38921v22.81129h-22.81129h-22.81129v-22.81129v-22.81129h22.81129h22.81129z" fill="#32566c"/>
     <path d="M603.99958,254.38921v22.81129h-22.81129h-22.81129v-22.81129v-22.81129h22.81129h22.81129z" fill="#ffffff"/>
     <path d="M650.19967,254.38921v22.81129h-22.81129h-22.81129v-22.81129v-22.81129h22.81129h22.81129z" fill="#ffffff"/>
     <path d="M696.39975,254.38921v22.81129h-22.81129h-22.81129v-22.81129v-22.81129h22.81129h22.81129z" fill="#ffffff"/>
     <path d="M742.59983,254.38921v22.81129h-22.81129h-22.81129v-22.81129v-22.81129h22.81129h22.81129z" fill="#32566c"/>
     <path d="M788.79992,254.38921v22.81129h-22.81129h-22.81129v-22.81129v-22.81129h22.81129h22.81129z" fill="#ffffff"/>
     <path d="M835,254.38921v22.81129h-22.81129h-22.81129v-22.81129v-22.81129h22.81129h22.81129z" fill="#ffffff"/>
     <path d="M881.20008,254.38921v22.81129h-22.81129h-22.81129v-22.81129v-22.81129h22.81129h22.81129z" fill="#ffffff"/>
     <path d="M927.40017,254.38921v22.81129h-22.81129h-22.81129v-22.81129v-22.81129h22.81129h22.81129z" fill="#32566c"/>
     <path d="M973.60025,254.38921v22.81129h-22.81129h-22.81129v-22.81129v-22.81129h22.81129h22.81129z" fill="#ffffff"/>
     <path d="M1019.80033,254.38921v22.81129h-22.81129h-22.81129v-22.81129v-22.81129h22.81129h22.81129z" fill="#ffffff"/>
     <path d="M1066.00042,254.38921v22.81129h-22.81129h-22.81129v-22.81129v-22.81129h22.81129h22.81129z" fill="#ffffff"/>
     <path d="M1112.2005,254.38921v22.81129h-22.81129h-22.81129v-22.81129v-22.81129h22.81129h22.81129z" fill="#32566c"/>
     <path d="M1158.40058,254.38921v22.81129h-22.81129h-22.81129v-22.81129v-22.81129h22.81129h22.81129z" fill="#ffffff"/>
     <path d="M511.59942,300.58929v22.81129h-22.81129h-22.81129v-22.81129v-22.81129h22.81129h22.81129z" fill="#ffffff"/>
     <path d="M557.7995,300.58929v22.81129h-22.81129h-22.81129v-22.81129v-22.81129h22.81129h22.81129z" fill="#ffffff"/>
     <path d="M603.99958,300.58929v22.81129h-22.81129h-22.81129v-22.81129v-22.81129h22.81129h22.81129z" fill="#87cefa"/>
     <path d="M650.19967,300.58929v22.81129h-22.81129h-22.81129v-22.81129v-22.81129h22.81129h22.81129z" fill="#ffffff"/>
     <path d="M696.39975,300.58929v22.81129h-22.81129h-22.81129v-22.81129v-22.81129h22.81129h22.81129z" fill="#ffffff"/>
     <path d="M742.59983,300.58929v22.81129h-22.81129h-22.81129v-22.81129v-22.81129h22.81129h22.81129z" fill="#ffffff"/>
     <path d="M788.79992,300.58929v22.81129h-22.81129h-22.81129v-22.81129v-22.81129h22.81129h22.81129z" fill="#87cefa"/>
     <path d="M835,300.58929v22.81129h-22.81129h-22.81129v-22.81129v-22.81129h22.81129h22.81129z" fill="#ffffff"/>
     <path d="M881.20008,300.58929v22.81129h-22.81129h-22.81129v-22.81129v-22.81129h22.81129h22.81129z" fill="#87cefa"/>
     <path d="M927.40017,300.58929v22.81129h-22.81129h-22.81129v-22.81129v-22.81129h22.81129h22.81129z" fill="#ffffff"/>
     <path d="M973.60025,300.58929v22.81129h-22.81129h-22.81129v-22.81129v-22.81129h22.81129h22.81129z" fill="#ffffff"/>
     <path d="M1019.80033,300.58929v22.81129h-22.81129h-22.81129v-22.81129v-22.81129h22.81129h22.81129z" fill="#ffffff"/>
     <path d="M1066.00042,300.58929v22.81129h-22.81129h-22.81129v-22.81129v-22.81129h22.81129h22.81129z" fill="#87cefa"/>
     <path d="M1112.2005,300.58929v22.81129h-22.81129h-22.81129v-22.81129v-22.81129h22.81129h22.81129z" fill="#ffffff"/>
     <path d="M1158.40058,300.58929v22.81129h-22.81129h-22.81129v-22.81129v-22.81129h22.81129h22.81129z" fill="#ffffff"/>
     <path d="M511.59942,346.78937v22.81129h-22.81129h-22.81129v-22.81129v-22.81129h22.81129h22.81129z" fill="#ff0000"/>
     <path d="M557.7995,346.78937v22.81129h-22.81129h-22.81129v-22.81129v-22.81129h22.81129h22.81129z" fill="#ffffff"/>
     <path d="M603.99958,346.78937v22.81129h-22.81129h-22.81129v-22.81129v-22.81129h22.81129h22.81129z" fill="#ffffff"/>
     <path d="M650.19967,346.78937v22.81129h-22.81129h-22.81129v-22.81129v-22.81129h22.81129h22.81129z" fill="#87cefa"/>
     <path d="M696.39975,346.78937v22.81129h-22.81129h-22.81129v-22.81129v-22.81129h22.81129h22.81129z" fill="#ffffff"/>
     <path d="M742.59983,346.78937v22.81129h-22.81129h-22.81129v-22.81129v-22.81129h22.81129h22.81129z" fill="#ffffff"/>
     <path d="M788.79992,346.78937v22.81129h-22.81129h-22.81129v-22.81129v-22.81129h22.81129h22.81129z" fill="#ffffff"/>
     <path d="M835,346.78937v22.81129h-22.81129h-22.81129v-22.81129v-22.81129h22.81129h22.81129z" fill="#f484b4"/>
     <path d="M881.20008,346.78937v22.81129h-22.81129h-22.81129v-22.81129v-22.81129h22.81129h22.81129z" fill="#ffffff"/>
     <path d="M927.40017,346.78937v22.81129h-22.81129h-22.81129v-22.81129v-22.81129h22.81129h22.81129z" fill="#ffffff"/>
     <path d="M973.60025,346.78937v22.81129h-22.81129h-22.81129v-22.81129v-22.81129h22.81129h22.81129z" fill="#ffffff"/>
     <path d="M1019.80033,346.78937v22.81129h-22.81129h-22.81129v-22.81129v-22.81129h22.81129h22.81129z" fill="#87cefa"/>
     <path d="M1066.00042,346.78937v22.81129h-22.81129h-22.81129v-22.81129v-22.81129h22.81129h22.81129z" fill="#ffffff"/>
     <path d="M1112.2005,346.78937v22.81129h-22.81129h-22.81129v-22.81129v-22.81129h22.81129h22.81129z" fill="#ffffff"/>
     <path d="M1158.40058,346.78937v22.81129h-22.81129h-22.81129v-22.81129v-22.81129h22.81129h22.81129z" fill="#ff0000"/>
     <path d="M511.59942,392.98946v22.81129h-22.81129h-22.81129v-22.81129v-22.81129h22.81129h22.81129z" fill="#ffffff"/>
     <path d="M557.7995,392.98946v22.81129h-22.81129h-22.81129v-22.81129v-22.81129h22.81129h22.81129z" fill="#ffffff"/>
     <path d="M603.99958,392.98946v22.81129h-22.81129h-22.81129v-22.81129v-22.81129h22.81129h22.81129z" fill="#87cefa"/>
     <path d="M650.19967,392.98946v22.81129h-22.81129h-22.81129v-22.81129v-22.81129h22.81129h22.81129z" fill="#ffffff"/>
     <path d="M696.39975,392.98946v22.81129h-22.81129h-22.81129v-22.81129v-22.81129h22.81129h22.81129z" fill="#ffffff"/>
     <path d="M742.59983,392.98946v22.81129h-22.81129h-22.81129v-22.81129v-22.81129h22.81129h22.81129z" fill="#ffffff"/>
     <path d="M788.79992,392.98946v22.81129h-22.81129h-22.81129v-22.81129v-22.81129h22.81129h22.81129z" fill="#87cefa"/>
     <path d="M835,392.98946v22.81129h-22.81129h-22.81129v-22.81129v-22.81129h22.81129h22.81129z" fill="#ffffff"/>
     <path d="M881.20008,392.98946v22.81129h-22.81129h-22.81129v-22.81129v-22.81129h22.81129h22.81129z" fill="#87cefa"/>
     <path d="M927.40017,392.98946v22.81129h-22.81129h-22.81129v-22.81129v-22.81129h22.81129h22.81129z" fill="#ffffff"/>
     <path d="M973.60025,392.98946v22.81129h-22.81129h-22.81129v-22.81129v-22.81129h22.81129h22.81129z" fill="#ffffff"/>
     <path d="M1019.80033,392.98946v22.81129h-22.81129h-22.81129v-22.81129v-22.81129h22.81129h22.81129z" fill="#ffffff"/>
     <path d="M1066.00042,392.98946v22.81129h-22.81129h-22.81129v-22.81129v-22.81129h22.81129h22.81129z" fill="#87cefa"/>
     <path d="M1112.2005,392.98946v22.81129h-22.81129h-22.81129v-22.81129v-22.81129h22.81129h22.81129z" fill="#ffffff"/>
     <path d="M1158.40058,392.98946v22.81129h-22.81129h-22.81129v-22.81129v-22.81129h22.81129h22.81129z" fill="#ffffff"/>
     <path d="M511.59942,439.18954v22.81129h-22.81129h-22.81129v-22.81129v-22.81129h22.81129h22.81129z" fill="#ffffff"/>
     <path d="M557.7995,439.18954v22.81129h-22.81129h-22.81129v-22.81129v-22.81129h22.81129h22.81129z" fill="#32566c"/>
     <path d="M603.99958,439.18954v22.81129h-22.81129h-22.81129v-22.81129v-22.81129h22.81129h22.81129z" fill="#ffffff"/>
     <path d="M650.19967,439.18954v22.81129h-22.81129h-22.81129v-22.81129v-22.81129h22.81129h22.81129z" fill="#ffffff"/>
     <path d="M696.39975,439.18954v22.81129h-22.81129h-22.81129v-22.81129v-22.81129h22.81129h22.81129z" fill="#ffffff"/>
     <path d="M742.59983,439.18954v22.81129h-22.81129h-22.81129v-22.81129v-22.81129h22.81129h22.81129z" fill="#32566c"/>
     <path d="M788.79992,439.18954v22.81129h-22.81129h-22.81129v-22.81129v-22.81129h22.81129h22.81129z" fill="#ffffff"/>
     <path d="M835,439.18954v22.81129h-22.81129h-22.81129v-22.81129v-22.81129h22.81129h22.81129z" fill="#ffffff"/>
     <path d="M881.20008,439.18954v22.81129h-22.81129h-22.81129v-22.81129v-22.81129h22.81129h22.81129z" fill="#ffffff"/>
     <path d="M927.40017,439.18954v22.81129h-22.81129h-22.81129v-22.81129v-22.81129h22.81129h22.81129z" fill="#32566c"/>
     <path d="M973.60025,439.18954v22.81129h-22.81129h-22.81129v-22.81129v-22.81129h22.81129h22.81129z" fill="#ffffff"/>
     <path d="M1019.80033,439.18954v22.81129h-22.81129h-22.81129v-22.81129v-22.81129h22.81129h22.81129z" fill="#ffffff"/>
     <path d="M1066.00042,439.18954v22.81129h-22.81129h-22.81129v-22.81129v-22.81129h22.81129h22.81129z" fill="#ffffff"/>
     <path d="M1112.2005,439.18954v22.81129h-22.81129h-22.81129v-22.81129v-22.81129h22.81129h22.81129z" fill="#32566c"/>
     <path d="M1158.40058,439.18954v22.81129h-22.81129h-22.81129v-22.81129v-22.81129h22.81129h22.81129z" fill="#ffffff"/>
     <path d="M511.59942,485.38962v22.81129h-22.81129h-22.81129v-22.81129v-22.81129h22.81129h22.81129z" fill="#ffffff"/>
     <path d="M557.7995,485.38962v22.81129h-22.81129h-22.81129v-22.81129v-22.81129h22.81129h22.81129z" fill="#ffffff"/>
     <path d="M603.99958,485.38962v22.81129h-22.81129h-22.81129v-22.81129v-22.81129h22.81129h22.81129z" fill="#ffffff"/>
     <path d="M650.19967,485.38962v22.81129h-22.81129h-22.81129v-22.81129v-22.81129h22.81129h22.81129z" fill="#ffffff"/>
     <path d="M696.39975,485.38962v22.81129h-22.81129h-22.81129v-22.81129v-22.81129h22.81129h22.81129z" fill="#f484b4"/>
     <path d="M742.59983,485.38962v22.81129h-22.81129h-22.81129v-22.81129v-22.81129h22.81129h22.81129z" fill="#ffffff"/>
     <path d="M788.79992,485.38962v22.81129h-22.81129h-22.81129v-22.81129v-22.81129h22.81129h22.81129z" fill="#ffffff"/>
     <path d="M835,485.38962v22.81129h-22.81129h-22.81129v-22.81129v-22.81129h22.81129h22.81129z" fill="#ffffff"/>
     <path d="M881.20008,485.38962v22.81129h-22.81129h-22.81129v-22.81129v-22.81129h22.81129h22.81129z" fill="#ffffff"/>
     <path d="M927.40017,485.38962v22.81129h-22.81129h-22.81129v-22.81129v-22.81129h22.81129h22.81129z" fill="#ffffff"/>
     <path d="M973.60025,485.38962v22.81129h-22.81129h-22.81129v-22.81129v-22.81129h22.81129h22.81129z" fill="#f484b4"/>
     <path d="M1019.80033,485.38962v22.81129h-22.81129h-22.81129v-22.81129v-22.81129h22.81129h22.81129z" fill="#ffffff"/>
     <path d="M1066.00042,485.38962v22.81129h-22.81129h-22.81129v-22.81129v-22.81129h22.81129h22.81129z" fill="#ffffff"/>
     <path d="M1112.2005,485.38962v22.81129h-22.81129h-22.81129v-22.81129v-22.81129h22.81129h22.81129z" fill="#ffffff"/>
     <path d="M1158.40058,485.38962v22.81129h-22.81129h-22.81129v-22.81129v-22.81129h22.81129h22.81129z" fill="#ffffff"/>
     <path d="M511.59942,531.58971v22.81129h-22.81129h-22.81129v-22.81129v-22.81129h22.81129h22.81129z" fill="#87cefa"/>
     <path d="M557.7995,531.58971v22.81129h-22.81129h-22.81129v-22.81129v-22.81129h22.81129h22.81129z" fill="#ffffff"/>
     <path d="M603.99958,531.58971v22.81129h-22.81129h-22.81129v-22.81129v-22.81129h22.81129h22.81129z" fill="#ffffff"/>
     <path d="M650.19967,531.58971v22.81129h-22.81129h-22.81129v-22.81129v-22.81129h22.81129h22.81129z" fill="#f484b4"/>
     <path d="M696.39975,531.58971v22.81129h-22.81129h-22.81129v-22.81129v-22.81129h22.81129h22.81129z" fill="#ffffff"/>
     <path d="M742.59983,531.58971v22.81129h-22.81129h-22.81129v-22.81129v-22.81129h22.81129h22.81129z" fill="#ffffff"/>
     <path d="M788.79992,531.58971v22.81129h-22.81129h-22.81129v-22.81129v-22.81129h22.81129h22.81129z" fill="#ffffff"/>
     <path d="M835,531.58971v22.81129h-22.81129h-22.81129v-22.81129v-22.81129h22.81129h22.81129z" fill="#87cefa"/>
     <path d="M881.20008,531.58971v22.81129h-22.81129h-22.81129v-22.81129v-22.81129h22.81129h22.81129z" fill="#ffffff"/>
     <path d="M927.40017,531.58971v22.81129h-22.81129h-22.81129v-22.81129v-22.81129h22.81129h22.81129z" fill="#ffffff"/>
     <path d="M973.60025,531.58971v22.81129h-22.81129h-22.81129v-22.81129v-22.81129h22.81129h22.81129z" fill="#ffffff"/>
     <path d="M1019.80033,531.58971v22.81129h-22.81129h-22.81129v-22.81129v-22.81129h22.81129h22.81129z" fill="#f484b4"/>
     <path d="M1066.00042,531.58971v22.81129h-22.81129h-22.81129v-22.81129v-22.81129h22.81129h22.81129z" fill="#ffffff"/>
     <path d="M1112.2005,531.58971v22.81129h-22.81129h-22.81129v-22.81129v-22.81129h22.81129h22.81129z" fill="#ffffff"/>
     <path d="M1158.40058,531.58971v22.81129h-22.81129h-22.81129v-22.81129v-22.81129h22.81129h22.81129z" fill="#87cefa"/>
     <path d="M511.59942,577.78979v22.81129h-22.81129h-22.81129v-22.81129v-22.81129h22.81129h22.81129z" fill="#ffffff"/>
     <path d="M557.7995,577.78979v22.81129h-22.81129h-22.81129v-22.81129v-22.81129h22.81129h22.81129z" fill="#ffffff"/>
     <path d="M603.99958,577.78979v22.81129h-22.81129h-22.81129v-22.81129v-22.81129h22.81129h22.81129z" fill="#f484b4"/>
     <path d="M650.19967,577.78979v22.81129h-22.81129h-22.81129v-22.81129v-22.81129h22.81129h22.81129z" fill="#ffffff"/>
     <path d="M696.39975,577.78979v22.81129h-22.81129h-22.81129v-22.81129v-22.81129h22.81129h22.81129z" fill="#ffffff"/>
     <path d="M742.59983,577.78979v22.81129h-22.81129h-22.81129v-22.81129v-22.81129h22.81129h22.81129z" fill="#ffffff"/>
     <path d="M788.79992,577.78979v22.81129h-22.81129h-22.81129v-22.81129v-22.81129h22.81129h22.81129z" fill="#87cefa"/>
     <path d="M835,577.78979v22.81129h-22.81129h-22.81129v-22.81129v-22.81129h22.81129h22.81129z" fill="#ffffff"/>
     <path d="M881.20008,577.78979v22.81129h-22.81129h-22.81129v-22.81129v-22.81129h22.81129h22.81129z" fill="#87cefa"/>
     <path d="M927.40017,577.78979v22.81129h-22.81129h-22.81129v-22.81129v-22.81129h22.81129h22.81129z" fill="#ffffff"/>
     <path d="M973.60025,577.78979v22.81129h-22.81129h-22.81129v-22.81129v-22.81129h22.81129h22.81129z" fill="#ffffff"/>
     <path d="M1019.80033,577.78979v22.81129h-22.81129h-22.81129v-22.81129v-22.81129h22.81129h22.81129z" fill="#ffffff"/>
     <path d="M1066.00042,577.78979v22.81129h-22.81129h-22.81129v-22.81129v-22.81129h22.81129h22.81129z" fill="#f484b4"/>
     <path d="M1112.2005,577.78979v22.81129h-22.81129h-22.81129v-22.81129v-22.81129h22.81129h22.81129z" fill="#ffffff"/>
     <path d="M1158.40058,577.78979v22.81129h-22.81129h-22.81129v-22.81129v-22.81129h22.81129h22.81129z" fill="#ffffff"/>
     <path d="M511.59942,623.98987v22.81129h-22.81129h-22.81129v-22.81129v-22.81129h22.81129h22.81129z" fill="#ffffff"/>
     <path d="M557.7995,623.98987v22.81129h-22.81129h-22.81129v-22.81129v-22.81129h22.81129h22.81129z" fill="#f484b4"/>
     <path d="M603.99958,623.98987v22.81129h-22.81129h-22.81129v-22.81129v-22.81129h22.81129h22.81129z" fill="#ffffff"/>
     <path d="M650.19967,623.98987v22.81129h-22.81129h-22.81129v-22.81129v-22.81129h22.81129h22.81129z" fill="#ffffff"/>
     <path d="M696.39975,623.98987v22.81129h-22.81129h-22.81129v-22.81129v-22.81129h22.81129h22.81129z" fill="#ffffff"/>
     <path d="M742.59983,623.98987v22.81129h-22.81129h-22.81129v-22.81129v-22.81129h22.81129h22.81129z" fill="#32566c"/>
     <path d="M788.79992,623.98987v22.81129h-22.81129h-22.81129v-22.81129v-22.81129h22.81129h22.81129z" fill="#ffffff"/>
     <path d="M835,623.98987v22.81129h-22.81129h-22.81129v-22.81129v-22.81129h22.81129h22.81129z" fill="#ffffff"/>
     <path d="M881.20008,623.98987v22.81129h-22.81129h-22.81129v-22.81129v-22.81129h22.81129h22.81129z" fill="#ffffff"/>
     <path d="M927.40017,623.98987v22.81129h-22.81129h-22.81129v-22.81129v-22.81129h22.81129h22.81129z" fill="#32566c"/>
     <path d="M973.60025,623.98987v22.81129h-22.81129h-22.81129v-22.81129v-22.81129h22.81129h22.81129z" fill="#ffffff"/>
     <path d="M1019.80033,623.98987v22.81129h-22.81129h-22.81129v-22.81129v-22.81129h22.81129h22.81129z" fill="#ffffff"/>
     <path d="M1066.00042,623.98987v22.81129h-22.81129h-22.81129v-22.81129v-22.81129h22.81129h22.81129z" fill="#ffffff"/>
     <path d="M1112.2005,623.98987v22.81129h-22.81129h-22.81129v-22.81129v-22.81129h22.81129h22.81129z" fill="#f484b4"/>
     <path d="M1158.40058,623.98987v22.81129h-22.81129h-22.81129v-22.81129v-22.81129h22.81129h22.81129z" fill="#ffffff"/>
     <path d="M511.59942,670.18996v22.81129h-22.81129h-22.81129v-22.81129v-22.81129h22.81129h22.81129z" fill="#ff0000"/>
     <path d="M557.7995,670.18996v22.81129h-22.81129h-22.81129v-22.81129v-22.81129h22.81129h22.81129z" fill="#ffffff"/>
     <path d="M603.99958,670.18996v22.81129h-22.81129h-22.81129v-22.81129v-22.81129h22.81129h22.81129z" fill="#ffffff"/>
     <path d="M650.19967,670.18996v22.81129h-22.81129h-22.81129v-22.81129v-22.81129h22.81129h22.81129z" fill="#87cefa"/>
     <path d="M696.39975,670.18996v22.81129h-22.81129h-22.81129v-22.81129v-22.81129h22.81129h22.81129z" fill="#ffffff"/>
     <path d="M742.59983,670.18996v22.81129h-22.81129h-22.81129v-22.81129v-22.81129h22.81129h22.81129z" fill="#ffffff"/>
     <path d="M788.79992,670.18996v22.81129h-22.81129h-22.81129v-22.81129v-22.81129h22.81129h22.81129z" fill="#ffffff"/>
     <path d="M835,670.18996v22.81129h-22.81129h-22.81129v-22.81129v-22.81129h22.81129h22.81129z" fill="#ff0000"/>
     <path d="M881.20008,670.18996v22.81129h-22.81129h-22.81129v-22.81129v-22.81129h22.81129h22.81129z" fill="#ffffff"/>
     <path d="M927.40017,670.18996v22.81129h-22.81129h-22.81129v-22.81129v-22.81129h22.81129h22.81129z" fill="#ffffff"/>
     <path d="M973.60025,670.18996v22.81129h-22.81129h-22.81129v-22.81129v-22.81129h22.81129h22.81129z" fill="#ffffff"/>
     <path d="M1019.80033,670.18996v22.81129h-22.81129h-22.81129v-22.81129v-22.81129h22.81129h22.81129z" fill="#87cefa"/>
     <path d="M1066.00042,670.18996v22.81129h-22.81129h-22.81129v-22.81129v-22.81129h22.81129h22.81129z" fill="#ffffff"/>
     <path d="M1112.2005,670.18996v22.81129h-22.81129h-22.81129v-22.81129v-22.81129h22.81129h22.81129z" fill="#ffffff"/>
     <path d="M1158.40058,670.18996v22.81129h-22.81129h-22.81129v-22.81129v-22.81129h22.81129h22.81129z" fill="#ff0000"/>
   </g>
</svg>
